HIERARCHY
ROOT Hips
{
	OFFSET	0.00	0.00	0.00
	CHANNELS 6 Xposition Yposition Zposition Zrotation Xrotation Yrotation
	JOINT Spine
	{
		OFFSET	 0.00	0.01	 0.00
		CHANNELS 3 Zrotation Xrotation Yrotation
		JOINT Spine1
		{
			OFFSET	 0.00	 2.45913012437421	 0.00
			CHANNELS 3 Zrotation Xrotation Yrotation
            JOINT Neck
            {
                OFFSET	 0.00	 2.48462964506057	 0.00
                CHANNELS 3 Zrotation Xrotation Yrotation
                JOINT Head
                {
                    OFFSET	 0.00	 0.927524780924562	 0.00
                    CHANNELS 3 Zrotation Xrotation Yrotation
                    End Site 
                    {
                        OFFSET	 0.00	 1.14999962169752	 0.00
                    }
                }
            }
			JOINT LeftShoulder
			{
				OFFSET	 0.00	 2.48462964506057	 0.00
				CHANNELS 3 Zrotation Xrotation Yrotation
				JOINT LeftUpArm
				{
					OFFSET	 0.00	 1.24881979654096	 0.00
					CHANNELS 3 Zrotation Xrotation Yrotation
					JOINT LeftForeArm
					{
						OFFSET	 0.00	2.59758046908119	 0.00
						CHANNELS 3 Zrotation Xrotation Yrotation
						JOINT LeftHand
						{
							OFFSET	 0.00	2.45542024364365	 0.00
							CHANNELS 3 Zrotation Xrotation Yrotation
							JOINT LeftHandThumb 
							{
								OFFSET	 0.00	0.00	 0.00
								CHANNELS 3 Zrotation Xrotation Yrotation
								End Site
								{
									OFFSET	 0.00	0.00	1.00000003353624
								}
							}
							JOINT L_Wrist_End 
							{
								OFFSET	 0.00	0.99999967115358	 0.00
								CHANNELS 3 Zrotation Xrotation Yrotation
								End Site 
								{
									OFFSET	 0.00	 0.00	 0.00
								}
							}
						}
					}
				}
			}
			JOINT RightShoulder
			{
				OFFSET	 0.00	 2.48462964506057	 0.00
				CHANNELS 3 Zrotation Xrotation Yrotation
				JOINT RightUpArm
				{
					OFFSET	 0.00	 1.24881979654096	 0.00
					CHANNELS 3 Zrotation Xrotation Yrotation
					JOINT RightForeArm
					{
						OFFSET	 0.00	2.59758046908119	 0.00
						CHANNELS 3 Zrotation Xrotation Yrotation
						JOINT RightHand
						{
							OFFSET	 0.00	2.45542024364365	 0.00
							CHANNELS 3 Zrotation Xrotation Yrotation
							JOINT RightHandThumb 
							{
								OFFSET	 0.00	0.00	 0.00
								CHANNELS 3 Zrotation Xrotation Yrotation
								End Site
								{
									OFFSET	 0.00	0.00	1.00000003353624
								}
							}
							JOINT R_Wrist_End 
							{
								OFFSET	 0.00	0.99999967115358	 0.00
								CHANNELS 3 Zrotation Xrotation Yrotation
								End Site 
								{
									OFFSET	 0.00	 0.00	 0.00
								}
							}
						}
					}
				}
			}
		}
	}
	JOINT LeftUpLeg
	{
		OFFSET	 1.2719394002717	 0.00	 0.00
		CHANNELS 3 Zrotation Xrotation Yrotation
		JOINT LeftLowLeg
		{
			OFFSET	 0.00	-4.3429100912261	 0.00
			CHANNELS 3 Zrotation Xrotation Yrotation
			JOINT LeftFoot
			{
				OFFSET	 0.00	-4.48767017425826	 0.00
				CHANNELS 3 Zrotation Xrotation Yrotation
				JOINT LeftToeBase
                {
                    OFFSET	 0.00	0.00	 1.51507020887566
                    CHANNELS 3 Zrotation Xrotation Yrotation
                    End Site 
                    {
                        OFFSET	 0.00	0.00	 0.75000010571191
                    }
                }
			}
		}
	}
	JOINT RightUpLeg
	{
		OFFSET	 -1.2719393604653	 0.00	 0.00
		CHANNELS 3 Zrotation Xrotation Yrotation
		JOINT RightLowLeg
		{
			OFFSET	 0.00	-4.3429100912261	 0.00
			CHANNELS 3 Zrotation Xrotation Yrotation
			JOINT RightFoot
			{
				OFFSET	 0.00	-4.48767017425826	 0.00
				CHANNELS 3 Zrotation Xrotation Yrotation
				JOINT RightToeBase
                {
                    OFFSET	 0.00	0.00	 1.51507020887566
                    CHANNELS 3 Zrotation Xrotation Yrotation
                    End Site 
                    {
                        OFFSET	 0.00	0.00	 0.749999965609858
                    }
                }   
			}
		}
	}
}
MOTION 
Frames:	16 
Frame Time: 0.02 
 -3.3895599365234377 3.2752398681640624 9.121439819335938 -69.2488 76.378 86.7959 9.47153 -13.8548 -0.010883 6.53702 18.9268 -4.04049 22.2797 38.4543 -11.6226 -72.7749 -70.3241 -59.6614 -113.742905 -3.9538 4.79894 -39.9152 -8.00059 -11.7248 0.0 113.2 0.0 32.2323 -22.6064 51.3094 0.0 0.0 0.0 0.0 0.0 0.0 113.418396 -10.3689 0.56053 28.2271 -10.568 -367.901 0.0 118.186 0.0 -9.93601 -31.4584 -13.5931 0.0 0.0 0.0 0.0 0.0 0.0 17.1301 -16.9444 -31.2639 0.0 36.3568 0.0 -6.95323 -10.796301 21.5712 0.0 -11.87844 0.0 21.9464 1.99918 384.774 0.0 4.84801 0.0 8.35991 3.8108997 -26.8682 0.0 -19.26803 0.0 
  -3.3932699584960937 3.281780090332031 9.11739013671875 -69.5008 76.2973 87.0434 9.41895 -13.9606 0.0109232 6.5297 18.7336 -3.94735 21.3071 39.1868 -10.2828 -73.3048 -70.1559 -60.4309 -113.9538 -3.85272 4.39286 -43.6531 -6.56644 -14.8898 0.0 116.264 0.0 35.1467 -22.3938 38.0821 0.0 0.0 0.0 0.0 0.0 0.0 113.559204 -9.94225 0.578601 32.5977 -10.8883 -364.419 0.0 116.954 0.0 -22.8572 -19.9455 -5.71419 0.0 0.0 0.0 0.0 0.0 0.0 17.1227 -17.1321 -31.3944 0.0 36.6006 0.0 -6.79186 -10.8167 21.7862 0.0 -11.85402 0.0 22.026 1.90788 384.771 0.0 4.83628 0.0 8.44003 3.7507 -26.7862 0.0 -19.24688 0.0 
  -3.3970401000976564 3.2847198486328124 9.113980102539063 -69.7585 76.2163 87.3121 9.33778 -14.1831 -0.0117307 6.65578 18.6478 -3.87277 20.1835 39.8066 -8.98373 -73.476 -69.8252 -60.814 -114.0594 -3.76935 3.89723 -46.7561 -5.05641 -15.3179 0.0 118.959 0.0 41.3733 -24.7126 29.6357 0.0 0.0 0.0 0.0 0.0 0.0 113.6591 -9.671 0.687905 36.4537 -10.7175 -363.052 0.0 118.71 0.0 -36.5819 -21.3938 -1.69793 0.0 0.0 0.0 0.0 0.0 0.0 17.1129 -17.2944 -31.5479 0.0 36.8263 0.0 -6.52986 -10.809799 22.0706 0.0 -11.85478 0.0 22.1058 1.85369 384.745 0.0 4.78038 0.0 8.47064 3.7416 -26.7217 0.0 -19.25824 0.0 
  -3.4001699829101564 3.2868301391601564 9.112650146484375 -69.8565 76.1681 87.3834 9.3171 -14.3392 0.0348303 6.6589 18.5673 -3.77502 19.2091 40.2731 -7.89508 -73.6898 -69.5463 -61.1173 -113.8024 -3.65759 3.66411 -49.4644 -3.84648 -14.0853 0.0 121.142 0.0 46.7102 -25.4389 20.8775 0.0 0.0 0.0 0.0 0.0 0.0 113.762695 -9.47649 0.897741 40.4404 -10.279 -359.32 0.0 119.904 0.0 -37.996 -20.7211 10.6522 0.0 0.0 0.0 0.0 0.0 0.0 17.0851 -17.3423 -31.6957 0.0 36.9372 0.0 -6.20541 -10.7374 22.4498 0.0 -11.86477 0.0 22.1523 1.83272 384.777 0.0 4.75483 0.0 8.53215 3.7387 -26.6803 0.0 -19.240631 0.0 
  -3.4026300048828126 3.289010009765625 9.111680297851562 -70.2333 76.1589 87.6971 9.33715 -14.528 0.09075 6.53359 18.4959 -3.69746 18.4456 40.477 -7.12888 -73.5044 -69.3225 -60.7334 -113.7941 -3.55473 3.67348 -51.1335 -2.6911 -12.4511 0.0 123.039 0.0 50.3671 -26.1209 14.8164 0.0 0.0 0.0 0.0 0.0 0.0 113.7714 -9.49609 1.1496 44.0168 -9.57042 -356.732 0.0 121.281 0.0 -39.3596 -22.1412 16.4376 0.0 0.0 0.0 0.0 0.0 0.0 17.029 -17.4426 -31.79 0.0 37.0571 0.0 -5.87447 -10.6539 22.8336 0.0 -11.81913 0.0 22.1697 1.72328 384.834 0.0 4.79607 0.0 8.6196 3.6939 -26.5856 0.0 -19.26148 0.0 
  -3.4063400268554687 3.2857901000976564 9.11301025390625 -69.4511 76.1621 86.8958 9.2621 -14.5222 0.0898381 6.44717 18.5223 -3.66688 17.8717 40.4779 -6.62213 -73.0119 -69.1515 -59.8621 -113.7451 -3.35293 3.93983 -52.182 -1.80927 -10.5705 0.0 124.471 0.0 53.4927 -25.1613 14.1366 0.0 0.0 0.0 0.0 0.0 0.0 113.737305 -9.61602 1.52341 47.1263 -9.04802 -355.219 0.0 122.402 0.0 -41.5496 -22.745 20.1468 0.0 0.0 0.0 0.0 0.0 0.0 16.9726 -17.1943 -31.9781 0.0 37.0445 0.0 -5.65091 -10.567301 23.1695 0.0 -11.79086 0.0 22.1951 1.90052 384.787 0.0 4.83162 0.0 8.55971 3.7466002 -26.6007 0.0 -19.26604 0.0 
  -3.4092999267578126 3.284639892578125 9.11364013671875 -68.6666 76.1985 86.0811 9.19663 -14.4662 0.0828329 6.31809 18.5181 -3.65599 17.3632 40.3302 -6.22256 -72.4651 -69.003 -58.9611 -113.8515 -3.11835 4.39142 -52.4398 -1.19583 -8.61055 0.0 125.335 0.0 56.1071 -22.5146 17.4035 0.0 0.0 0.0 0.0 0.0 0.0 113.7331 -9.75551 1.7616 49.6932 -8.51338 -354.485 0.0 123.169 0.0 -46.224 -22.7989 11.2675 0.0 0.0 0.0 0.0 0.0 0.0 16.8745 -16.9532 -32.1899 0.0 37.037 0.0 -5.54263 -10.503599 23.4379 0.0 -11.80144 0.0 22.1905 2.04311 384.71 0.0 4.91982 0.0 8.52625 3.7334995 -26.5686 0.0 -19.264141 0.0 
  -3.4117300415039065 3.2831100463867187 9.114130249023438 -68.5232 76.2351 85.8778 9.1602 -14.5416 0.0570622 6.15903 18.49 -3.66358 16.8334 40.1534 -5.74145 -71.9789 -68.9046 -58.2041 -114.0565 -2.94541 4.76856 -52.0631 -0.946593 -6.80616 0.0 125.618 0.0 56.6103 -19.7447 21.9592 0.0 0.0 0.0 0.0 0.0 0.0 113.7875 -9.73571 1.75925 51.5459 -8.04575 -354.078 0.0 123.213 0.0 -50.0835 -21.5036 8.73486 0.0 0.0 0.0 0.0 0.0 0.0 16.8134 -16.8636 -32.304 0.0 37.0424 0.0 -5.4841 -10.4573 23.6385 0.0 -11.79951 0.0 22.1877 2.05352 384.696 0.0 4.99798 0.0 8.48765 3.7307997 -26.5368 0.0 -19.27211 0.0 
  -3.413380126953125 3.281549987792969 9.114439697265626 -68.4189 76.2641 85.7123 9.13226 -14.617 -0.000765753 6.04566 18.4713 -3.70932 16.197 39.928 -5.10733 -71.4922 -68.8281 -57.5289 -114.2035 -2.78222 4.92739 -51.6361 -1.27555 -5.19083 0.0 125.316 0.0 54.6844 -17.6698 24.8735 0.0 0.0 0.0 0.0 0.0 0.0 113.863 -9.64239 1.91087 52.6825 -7.87678 -354.261 0.0 122.837 0.0 -53.7908 -19.8943 5.06844 0.0 0.0 0.0 0.0 0.0 0.0 16.7991 -16.7811 -32.3326 0.0 37.0176 0.0 -5.53423 -10.4709 23.6794 0.0 -11.77075 0.0 22.1791 2.07706 384.643 0.0 5.03431 0.0 8.42215 3.7531996 -26.4772 0.0 -19.27373 0.0 
  -3.414490051269531 3.279679870605469 9.114409790039062 -68.498 76.282 85.7311 9.0996 -14.7134 -0.111356 5.95931 18.4173 -3.80235 15.6228 39.6248 -4.52131 -70.5076 -68.7658 -56.312 -114.303604 -2.72293 5.10687 -51.3072 -1.49694 -4.20171 0.0 124.563 0.0 51.7174 -17.9736 25.3258 0.0 0.0 0.0 0.0 0.0 0.0 113.9779 -9.52299 1.93992 53.1097 -7.71316 -354.686 0.0 122.213 0.0 -56.309 -19.0948 2.66699 0.0 0.0 0.0 0.0 0.0 0.0 16.8333 -16.7397 -32.282 0.0 36.9667 0.0 -5.65401 -10.5212 23.6092 0.0 -11.7834 0.0 22.167 2.09123 384.633 0.0 5.01201 0.0 8.38874 3.764 -26.427 0.0 -19.25531 0.0 
  -3.4151400756835937 3.2777301025390626 9.113779907226563 -68.9632 76.2899 86.1214 9.02928 -14.9021 -0.288799 5.97726 18.3789 -3.92842 14.8677 39.2063 -3.75224 -69.1834 -68.6606 -54.792 -114.2873 -2.72523 5.21435 -51.1394 -1.82405 -3.53788 0.0 123.539 0.0 49.0019 -20.3583 24.0667 0.0 0.0 0.0 0.0 0.0 0.0 113.984 -9.29643 1.79871 53.0808 -7.64574 -355.2 0.0 121.558 0.0 -57.5636 -19.6764 2.4669 0.0 0.0 0.0 0.0 0.0 0.0 16.9192 -16.7861 -32.1262 0.0 36.8968 0.0 -5.81953 -10.6234 23.4392 0.0 -11.79354 0.0 22.1616 2.02985 384.718 0.0 4.97706 0.0 8.40305 3.7561998 -26.4052 0.0 -19.27162 0.0 
  -3.415329895019531 3.277330017089844 9.112020263671875 -69.5626 76.2792 86.6077 9.00664 -15.0736 -0.404448 5.96274 18.305 -4.01403 14.3519 38.7296 -3.20897 -67.8731 -68.6212 -53.2523 -114.2168 -2.57455 5.54363 -51.063 -2.05853 -3.23672 0.0 122.511 0.0 47.9865 -23.819 21.3793 0.0 0.0 0.0 0.0 0.0 0.0 114.0532 -9.11388 1.62901 52.6046 -7.6478 -355.686 0.0 121.001 0.0 -57.624 -21.6151 2.86666 0.0 0.0 0.0 0.0 0.0 0.0 17.035 -16.883 -31.8709 0.0 36.8709 0.0 -5.90719 -10.7248 23.2541 0.0 -11.7801895 0.0 22.1713 1.9328 384.874 0.0 4.96135 0.0 8.44981 3.7102003 -26.3873 0.0 -19.24698 0.0 
  -3.4161700439453124 3.2720901489257814 9.111430053710938 -69.3312 76.2293 86.3175 8.89926 -15.1771 -0.58792 6.08942 18.4288 -4.14607 13.7855 38.0972 -2.569 -66.5464 -68.633 -51.8029 -114.1397 -2.36703 5.86172 -51.1518 -2.36612 -3.12718 0.0 121.733 0.0 48.2315 -26.9967 19.8038 0.0 0.0 0.0 0.0 0.0 0.0 114.0837 -8.88754 1.46192 51.8898 -7.73558 -356.102 0.0 120.562 0.0 -57.3174 -24.2848 3.52078 0.0 0.0 0.0 0.0 0.0 0.0 17.1667 -16.7535 -31.7196 0.0 36.8097 0.0 -5.96157 -10.8328 23.117 0.0 -11.75019 0.0 22.221 2.06272 384.971 0.0 4.89421 0.0 8.38395 3.7622995 -26.4865 0.0 -19.26649 0.0 
  -3.414580078125 3.273789978027344 9.1089697265625 -70.0814 76.2228 86.9773 8.88468 -15.3419 -0.684794 6.10632 18.407 -4.21986 13.316 37.4903 -1.97044 -65.4581 -68.7105 -50.6414 -114.013596 -2.07963 6.14056 -51.3986 -2.82148 -3.32425 0.0 121.184 0.0 49.1484 -29.8011 19.7628 0.0 0.0 0.0 0.0 0.0 0.0 114.1415 -8.80842 1.21663 51.0407 -7.70709 -356.355 0.0 120.345 0.0 -56.7022 -27.4355 5.08776 0.0 0.0 0.0 0.0 0.0 0.0 17.219 -16.9392 -31.5308 0.0 36.8739 0.0 -6.02362 -10.929899 23.0014 0.0 -11.74047 0.0 22.2179 1.90326 385.107 0.0 4.90403 0.0 8.46581 3.665 -26.4341 0.0 -19.2665 0.0 
  -3.414639892578125 3.2750399780273436 9.108049926757813 -70.0751 76.1773 86.8366 8.89502 -15.3287 -0.691217 6.10922 18.4297 -4.23765 13.1667 36.8492 -1.76122 -64.7748 -68.8401 -49.9094 -113.882 -1.71654 6.5308 -51.7608 -3.18225 -3.90245 0.0 120.852 0.0 50.137 -31.7876 21.1844 0.0 0.0 0.0 0.0 0.0 0.0 114.1345 -8.78698 1.06542 50.2839 -7.84806 -356.575 0.0 120.151 0.0 -56.2763 -29.6049 5.98359 0.0 0.0 0.0 0.0 0.0 0.0 17.3065 -16.9227 -31.3455 0.0 36.9455 0.0 -6.07042 -10.9890995 22.9052 0.0 -11.74519 0.0 22.2601 1.91222 385.169 0.0 4.94041 0.0 8.47998 3.6751003 -26.3643 0.0 -19.27162 0.0 
  -3.413399963378906 3.275260009765625 9.107760009765625 -70.0904 76.1458 86.7508 8.89559 -15.3663 -0.710616 6.10457 18.5157 -4.26529 13.1393 36.2999 -1.64712 -64.2243 -69.0023 -49.3315 -113.6698 -1.4434 6.72528 -52.3076 -3.57889 -4.49767 0.0 120.702 0.0 50.9211 -32.7516 23.0919 0.0 0.0 0.0 0.0 0.0 0.0 114.0109 -8.77318 0.903693 49.7226 -7.95876 -356.707 0.0 120.024 0.0 -56.8995 -30.9979 5.65516 0.0 0.0 0.0 0.0 0.0 0.0 17.3404 -16.9142 -31.2511 0.0 37.026 0.0 -6.06243 -11.01 22.9074 0.0 -11.771709 0.0 22.2794 1.92994 385.249 0.0 4.94818 0.0 8.4951 3.6786003 -26.3433 0.0 -19.25853 0.0 
